<?xml version="1.0" encoding="utf-8"?>
<!-- Generator: Adobe Illustrator 27.5.0, SVG Export Plug-In . SVG Version: 6.00 Build 0)  -->
<svg version="1.1" id="_x3C_Layer_x3E_" xmlns="http://www.w3.org/2000/svg" xmlns:xlink="http://www.w3.org/1999/xlink" x="0px"
	 y="0px" viewBox="0 0 2848 1780" style="enable-background:new 0 0 2848 1780;" xml:space="preserve">
<rect style="fill:#FFFFFF;" width="2848" height="1780"/>
<g>
	<g>
		<path style="fill:#EBF3FA;" d="M312.085,1590.166c0,0-301.21-323.404-50.94-673.534c222.057-310.66,480.953-289.424,670.9-163.356
			c80.901,53.693,314.148,6.618,512.672-309.489C1715.449,12.701,2653.9,274.156,2482.791,937.39
			c-82.805,320.959,252.009,332.626,81.408,653.456L312.085,1590.166z"/>
		<g>
			<path style="fill:#FFB27D;" d="M1498.638,741.09l88.256,139.568l-22.17,7.57c0,0-111.055-105.264-104.024-126.201
				S1498.638,741.09,1498.638,741.09z"/>
			<path style="fill:#2C3A64;" d="M1333.391,336.391c0,0-62.055-8.493-84.759,59.701c-22.703,68.193-43.136,70.489-49.19,112.104
				c-3.869,26.593,39.353,61.281,25.73,88.525c-13.622,27.243-17.595,114.271,66.596,110.866
				c56.744-2.295,153.75-71.106,164.297-111.397c18.086-69.092-61.579-69.85-44.071-95.579c17.508-25.73,23.562-31.784,9.94-68.866
				C1408.311,394.662,1402.416,332.693,1333.391,336.391z"/>
			<path style="fill:#F99746;" d="M1516.252,762.691c-1.706,6.057-25.319,35.78-56.556,32.777
				c-18.165-1.742-42.492-87.616-51.959-159.555c-6.812-51.743-5.936-96.29,10.427-97.191c0,0,20.172,11.065,31.754,36.896
				C1461.498,601.447,1517.957,756.638,1516.252,762.691z"/>
			<path style="fill:#ED7D2B;" d="M1516.252,762.691c-1.706,6.057-15.791,57.581-47.026,54.577
				c-18.165-1.742-52.021-109.416-61.488-181.354l16.519-46.084c0,0,8.036,127.352,41.237,152.008
				C1488.676,759.054,1516.252,762.691,1516.252,762.691z"/>
			<path style="fill:#2B478B;" d="M1512.461,1542.667h-28.012c0,0-104.53-236.939-95.25-304.398
				c1.104-8.033-1.168-21.081-5.644-37.753c-23.3-86.78-106.091-271.409-80.874-353.465c30.073-97.834,133.62,14.74,133.62,14.74
				c0.616-3.537,24.054,82.377,29.191,200.041c3.132,71.72,7.299,142.897,11.46,185.651
				C1487.861,1359.548,1512.461,1542.667,1512.461,1542.667z"/>
			<path style="fill:#233862;" d="M1465.493,1061.832l-81.938,138.684c-23.3-86.78-106.091-271.409-80.874-353.465
				c30.073-97.834,131.786,7.838,131.786,7.838S1460.111,945.567,1465.493,1061.832z"/>
			<path style="fill:#2B478B;" d="M1235.458,850.345c0,0-34.921,54.425,19.167,338.873
				c22.681,119.272-22.752,101.515,41.132,360.286h26.604c0,0,39.27-429.258,56.094-540.56
				c17.064-112.891,32.078-156.08,32.078-156.08L1235.458,850.345z"/>
			<path style="fill:#FFB27D;" d="M1407.857,584.928c-10.355,9.059-23.727,17.072-40.955,23.139
				c-64.598,22.778-96.313-30.406-110.177-67.805c8.457-6.199,16.843-8.29,21.696-9.431c4.722-1.106,9.719-2.042,13.875-2.728
				c6.801-6.536,15.281-31.127,13.66-67.649l3.208,0.493l53.869,8.422c0,0-0.155,4.937-0.204,11.965
				c-0.036,5.982,0,13.479,0.276,20.76c0.192,4.89,0.48,9.684,0.937,13.852c0.697,6.392,1.754,11.329,3.363,12.902
				c4.17,0.433,6.693,0.733,6.693,0.733s0,0.013,0.023,0.048C1374.952,530.698,1392.925,553.933,1407.857,584.928z"/>
			<path style="fill:#ED985F;" d="M1364.043,515.945c-30.358-0.481-47.585-27.715-54.878-43.01l53.665,8.399
				c-0.036,5.982,0,13.479,0.276,20.76C1363.299,506.983,1363.587,511.777,1364.043,515.945z"/>
			<path style="fill:#FFB27D;" d="M1370.111,490.781c0,0-67.386,3.833-69.127-38.169c-1.741-42.001-11.611-69.794,31.34-74.017
				c42.952-4.223,51.98,11.457,55.972,25.336C1392.286,417.81,1387.595,488.702,1370.111,490.781z"/>
			<path style="fill:#233862;" d="M1589.255,1586.508h-114.226c0,0-9.985-19.096-2.124-32.093
				c6.958-11.497,7.107-23.908,1.954-33.42c5.425,2.22,14.598,9.319,22.322,8.878c5.966-0.343,6.761-4.441,12.293-7.655
				c5.153,5.876,27.761,33.056,34.655,38.01C1551.955,1565.85,1586.845,1563.847,1589.255,1586.508z"/>
			<path style="fill:#FFFFFF;" d="M1350.848,469.066c0,0,1.705,5.352,15.203,3.461c0,0,11.331-1.585,10.519-7.549
				C1376.569,464.978,1365.199,461.569,1350.848,469.066z"/>
			<path style="fill:#233862;" d="M1335.004,1529.512c0,0,9.567,26.019,18.328,30.063c8.762,4.044,16.175,13.01,14.153,26.934
				h-80.874c0,0-5.393-21.011,7.413-56.996c0,0,17.654-13.706,29.654-10.53C1335.678,1522.157,1335.004,1529.512,1335.004,1529.512z
				"/>
			<path style="fill:#FFB27D;" d="M1230.326,548.006c0,0-109.616,126.766-110.418,148.771
				c-0.8,22.005,104.459,114.085,104.459,114.085l8.81-18.064c0,0-63.01-96.441-60.608-99.445
				c2.403-3.004,68.479-63.071,75.688-69.079C1255.463,618.267,1280.874,563.043,1230.326,548.006z"/>
			<path style="fill:#F99746;" d="M1418.164,538.723c0,0-12.745-6.318-44.064-9.142c0,0,0,0.013,0.023,0.048
				c0.925,1.502,25.529,41.304,23.859,51.815c-1.694,10.692-94.452,4.878-101.06-0.709c-5.286-4.493-13.972-33.83-17.216-45.303
				c-0.817-2.859-1.285-4.602-1.285-4.602s-18.109,2.725-33.757,9.203c-0.002,0-0.004,0-0.005,0c0,0-21.434,4.948-60.679,53.805
				c-39.244,48.854-66.875,81.692-72.081,107.322c-4.225,20.794-2.403,85.898,24.026,84.696
				c26.431-1.201,58.91-52.939,54.544-60.076c-4.366-7.138-12.095-25.247-10.293-29.005c3.705-7.724,31.815-29.166,58.659-48.613
				c0.261,1.005,0.524,2.022,0.792,3.056c4.771,18.43,10.572,41.484,17,65.68c1.226,4.589,1.742,9.503,1.73,14.645
				c-0.12,43.081-38.312,102.081-25.156,123.201c0.96,3.038,5.153,5.707,11.712,8.001c45.568,15.918,205.591,13.779,194.959-8.409
				c0,0-27.933-64.803,5.202-210.842C1453.641,605.784,1404.446,554.654,1418.164,538.723z"/>
			<path style="fill:#ED7D2B;" d="M1244.915,862.745c-6.559-2.294-10.752-4.963-11.712-8.001
				c-13.155-21.12,25.036-80.12,25.156-123.201c0.012-5.142-0.505-10.056-1.73-14.645c-6.428-24.195-12.229-47.25-17-65.68
				c-4.389-14.58,33.255-21.388,45.01-6.419c14.801,18.848,9.907,70.394,11.071,90.954
				C1298.112,778.198,1241.779,855.789,1244.915,862.745z"/>
			<path style="fill:#FFB27D;" d="M1230.326,795.469c0,0,14.926-14.617,20.532-14.218c5.606,0.402,17.22,19.223,17.22,25.23
				c0,14.016-11.613,11.613-18.876,8.01c-3.276-1.626-11.113-7.945-11.158-5.054c-0.1,6.455-8.711,5.654-15.065,0.203
				C1217.904,805.286,1230.326,795.469,1230.326,795.469z"/>
			<path style="fill:#2C3A64;" d="M1365.389,377.896c0,0-17.807,43.096-49.557,52.105c-31.749,9.011-0.214,56.094-19.85,57.295
				s-48.701-133.98-5.266-129.174C1334.153,362.927,1365.389,377.896,1365.389,377.896z"/>
			<path style="fill:#2C3A64;" d="M1350.848,377.896c0,0,18.146,2.451,22.351,18.069c4.204,15.617,10.812,37.242,21.625,33.639
				C1405.635,425.999,1407.789,370.038,1350.848,377.896z"/>
		</g>
		<g>
			<path style="fill:#FFB27D;" d="M1068.244,1005.773l-48.127,24.597l-9.644-33.389c0,0,6.131-11.554,8.904-30.483
				c1.16-7.959,1.735-17.224,0.996-27.483l39.213,20.079c0,0-0.936,3.625-1.562,8.975c-0.668,5.783-0.966,13.578,0.678,20.983
				C1060.12,995.409,1062.965,1001.479,1068.244,1005.773z"/>
			<path style="fill:#FFB27D;" d="M982.334,1012.562c0,0-44.418-57.511-66.034-75.359c0,0-29.567-72.906-31.969-77.709
				c-2.401-4.805-17.753,4.003-17.753,4.003s10.859,70.87,22.313,91.879c11.453,21.009,46.967,91.516,72.033,94.133
				C985.99,1052.123,982.334,1012.562,982.334,1012.562z"/>
			<path style="fill:#2C3A64;" d="M1116.465,1553.666c0,0,5.018,9.793,16.135,12.214c7.004,1.525,12.999,5.17,16.73,10.279
				c3.153,4.319,0.104,10.394-5.244,10.394h-56.43c-4.806,0-8.555-4.146-8.074-8.927c0.421-4.181,0.86-9.049,1.051-12.782
				c0.417-8.149,8.579-14.71,8.579-14.71L1116.465,1553.666z"/>
			<path style="fill:#35488B;" d="M1117.824,1556.129c0,0-13.538,7.999-36.444,3.171c0,0-38.942-99.581-41.248-146.441
				c-0.104-1.882-0.136-3.675-0.104-5.38c0.785-44.074-39.91-158.844-28.934-182.357c10.975-23.523,99.669,10.567,99.669,10.567
				l1.762,79.975L1117.824,1556.129z"/>
			<path style="fill:#2C3A64;" d="M1112.524,1315.663l-72.393,97.195c-0.104-1.882-0.136-3.675-0.104-5.38
				c0.785-44.074-39.91-158.844-28.934-182.357c10.975-23.523,99.669,10.567,99.669,10.567L1112.524,1315.663z"/>
			<path style="fill:#FFB27D;" d="M1071.677,1017.617c0,0,64.074-57.159,67.987-65.016c3.912-7.857,22.09-78.066,22.09-78.066
				l15.27,1.867c0,0-2.913,84.193-9.346,100.595c-6.433,16.402-81.909,86.141-81.909,86.141L1071.677,1017.617z"/>
			<path style="fill:#2C3A64;" d="M970.775,1553.666c0,0,5.018,9.793,16.136,12.214c7.002,1.525,12.998,5.17,16.73,10.279
				c3.152,4.319,0.102,10.394-5.245,10.394h-56.428c-4.807,0-8.556-4.146-8.075-8.927c0.42-4.181,0.859-9.049,1.051-12.782
				c0.417-8.149,8.58-14.71,8.58-14.71L970.775,1553.666z"/>
			<path style="fill:#35488B;" d="M1058.887,1237.586c0,0-78.385,292.516-80.786,321.142c0,0-15.289,7.843-40.108-6.012
				c0,0-14.411-131.106,0-166.935c14.41-35.827-2.861-144.123,33.797-168.552
				C1008.446,1192.802,1058.887,1237.586,1058.887,1237.586z"/>
			<path style="fill:#FFB93E;" d="M1108.237,1048.172c0.269-4.002,24.365-20.282,24.365-20.282
				c5.069-30.426-14.292-52.335-14.292-52.335l-29.021,20.643c-5.604,0.334-8.006,2.376-8.006,2.376
				c-4.804-1.295-19.168-0.223-19.168-0.223c0.212,6.919-1.59,13.455-13.731,15.045c-16.155,2.104-30.599-8.918-37.911-16.412
				c0,0-9.785-0.852-22.061,3.151c0,0-5.943-3.039-12.277-3.227l-23.756-21.354c0,0-27.83,8.034-32.22,49.979
				c0,0,31.244,23.775,33.501,42.56l0.855,7.12l3.027,25.224l5.329,44.24l-15.867,88.116c-0.136,0.771-0.211,1.543-0.211,2.3
				c0,5.89,4.026,11.188,9.947,12.612c0,0,1.362,0.227,3.876,0.575c16.82,2.362,85.103,10.507,138.638-4.027
				c12.037-3.271,19.971-14.762,18.971-27.207l-11.327-142.144l0,0C1106.898,1074.902,1107.972,1052.176,1108.237,1048.172z"/>
			<path style="fill:#FFA412;" d="M982.282,1181.755c-1.06,30.734-4.072,56.79-21.665,66.525c-2.514-0.349-3.876-0.575-3.876-0.575
				c-5.921-1.424-9.947-6.723-9.947-12.612c0-0.757,0.075-1.528,0.211-2.3l15.867-88.116l-5.329-44.24
				c0.258-0.772,0.394-1.181,0.394-1.181S983.63,1142.39,982.282,1181.755z"/>
			<path style="fill:#EA9C68;" d="M1058.703,989.052c-22.297-0.596-39.325-22.554-39.325-22.554l38.647,1.57
				C1057.357,973.852,1057.06,981.646,1058.703,989.052z"/>
			<g>
				<path style="fill:#FFB27D;" d="M1069.52,976.628c0,0-44.479,11.744-59.82-23.624c-16.559-38.17,1.607-65.979,16.711-67.854
					c30.119-3.741,47.613,7.743,52.906,19.883S1094.061,970.367,1069.52,976.628z"/>
				<path style="fill:#FFFFFF;" d="M1051.887,956.717c0,0,1.861,4.588,13.595,2.013c0,0,9.851-2.16,8.733-7.347
					C1074.215,951.383,1063.991,949.158,1051.887,956.717z"/>
				<g>
					<path style="fill:#2C3A64;" d="M1017.641,965.377c0,0-5.22-15.307-4.595-23.479c0,0-11.606-14.8-4.844-18.464
						c6.763-3.662,10.411,5.095,11.962,3.375c1.55-1.718,3.969-30.801,12.182-29.882c8.214,0.919,38.598,10.335,51.918-1.151
						c13.32-11.486-18.995-56.369-73.761-39.033C955.737,874.08,966.921,934.971,1017.641,965.377z"/>
					<path style="fill:#2C3A64;" d="M983.486,880.624c0,0-2.482-7.399,0.182-12.685c0,0,0.131,7.28,2.989,10.518
						C989.517,881.698,983.486,880.624,983.486,880.624z"/>
					<path style="fill:#2C3A64;" d="M984.626,875.449c0,0-6.775-0.768-9.974,4.442c0,0,4.772-3.227,9.598,0.195L984.626,875.449z"/>
				</g>
			</g>
			<path style="fill:#FFB27D;" d="M1161.754,874.536c0,0,0.302-6.617-1.837-12.186c-2.139-5.567-0.881-20.027,1.851-19.214
				c2.733,0.814,1.511,6.008,4.566,5.397c3.055-0.61,7.943-17.416,11.916-15.888c3.972,1.527,6.861,7.18,5.64,19.401
				c-1.222,12.223-6.866,24.357-6.866,24.357L1161.754,874.536z"/>
			<path style="fill:#FFB27D;" d="M883.992,859.375c0,0-1.608-7.276-0.311-13.859c1.299-6.583-2.88-22.366-5.75-20.939
				c-2.872,1.428-0.517,6.949-4.021,6.86c-3.504-0.089-12.157-17.773-16.265-15.315c-4.108,2.458-6.224,9.279-2.516,22.589
				c3.708,13.311,12.299,25.672,12.299,25.672L883.992,859.375z"/>
		</g>
		<g>
			<path style="fill:#FFB27D;" d="M2270.498,1134.382c-1.647-17.541-54.902-105.427-54.902-105.427l-26.128,39.853
				c0,0,45.776,72.645,47.364,81.275c1.589,8.632-0.352,81.13-0.352,81.13s-1.539,6.444-5.134,11.203
				c-3.595,4.761-6.384,19.005-3.532,18.979c2.851-0.027,3.111-5.356,5.879-3.926c2.768,1.433,2.82,18.934,7.06,18.563
				c4.24-0.37,8.579-5.003,10.784-17.087c2.203-12.082,0.135-25.305,0.135-25.305S2272.147,1151.923,2270.498,1134.382z"/>
			<path style="fill:#FFB27D;" d="M2012.022,931.488c-3.913-7.855-22.091-78.065-22.091-78.065s-0.302-6.618,1.838-12.187
				c2.139-5.568,0.881-20.028-1.852-19.215c-2.732,0.814-1.51,6.009-4.565,5.397c-3.055-0.609-7.944-17.415-11.916-15.888
				c-3.972,1.528-6.861,7.181-5.64,19.403c1.223,12.221,6.865,24.356,6.865,24.356s2.914,84.193,9.346,100.596
				c6.434,16.401,81.91,86.141,81.91,86.141l14.092-45.522C2080.01,996.503,2015.936,939.345,2012.022,931.488z"/>
			<path style="fill:#FFB27D;" d="M2140.488,1414.727l28.853,141.533h29.514c0,0,20.872-133.124,1.58-151.545
				S2140.488,1414.727,2140.488,1414.727z"/>
			<path style="fill:#FFB27D;" d="M2052.859,1408.364l0.905,148.124l25.604-2.178c0,0,49.188-121.063,34.201-143.13
				C2098.582,1389.115,2052.859,1408.364,2052.859,1408.364z"/>
			<path style="fill:#D3671E;" d="M2053.683,1553.622c0,0-5.018,9.792-16.135,12.213c-7.003,1.525-12.998,5.17-16.729,10.28
				c-3.154,4.318-0.104,10.393,5.244,10.393h56.429c4.806,0,8.556-4.146,8.074-8.928c-0.42-4.18-0.859-9.048-1.051-12.781
				c-0.417-8.148-8.579-14.71-8.579-14.71L2053.683,1553.622z"/>
			<path style="fill:#35488B;" d="M2174.536,1405.319c-1.623,12.435-6.2,21.528-14.298,25.108
				c-22.525,9.96-48.066,9.179-69.883,5.047c-4.77-0.901-9.359-1.971-13.707-3.124c-22.069-5.814-37.724-13.78-37.724-13.78
				l18.969-188.254c21.518-4.361,50.927,5.441,79.388,48.655C2163.015,1318.04,2178.765,1372.979,2174.536,1405.319z"/>
			<path style="fill:#2C3A64;" d="M2174.536,1405.319c-1.623,12.435-6.2,21.528-14.298,25.108
				c-22.525,9.96-48.066,9.179-69.883,5.047c-4.77-0.901-9.359-1.971-13.707-3.124c-4.338-82.702,26.117-158.81,35.151-169.394
				C2140.692,1306.831,2173.165,1370.216,2174.536,1405.319z"/>
			<path style="fill:#D3671E;" d="M2168.753,1553.622c0,0-5.018,9.792-16.135,12.213c-7.004,1.525-12.999,5.17-16.73,10.28
				c-3.153,4.318-0.104,10.393,5.245,10.393h56.429c4.804,0,8.555-4.146,8.074-8.928c-0.421-4.18-0.86-9.048-1.052-12.781
				c-0.417-8.148-4.549-16.531-4.549-16.531L2168.753,1553.622z"/>
			<path style="fill:#35488B;" d="M2186.914,859.973c-6.656-10.308-16.004-10.754-24.989-19.485
				c-8.46-8.221-24.226-13.624-36.775-13.624c-40.158,0-74.934,24.585-67.006,66.277c2.519,13.245,0.392,23.683,11.128,39.167
				c13.401,19.327,29.697,34.839,55.878,34.839c13.891,0,26.063-3.205,36.775-13.33c5.833-5.515,14.198-6.192,19.333-12.195
				c10.373-12.125,9.601-28.102,13.409-44.617C2198.154,881.886,2193.854,870.721,2186.914,859.973z"/>
			<path style="fill:#35488B;" d="M2094.354,1237.582l24.911,205.576c0,0,52.769,12.415,110.766-5.765
				c0,0-17.279-197.052-31.176-211.42S2094.354,1237.582,2094.354,1237.582z"/>
			<path style="fill:#FFB27D;" d="M2088.287,994.923l50.049,25.579l10.029-34.722c0,0-6.376-12.016-9.26-31.699
				c-1.207-8.278-1.805-17.911-1.036-28.581l-40.778,20.88c0,0,0.973,3.771,1.623,9.335c0.695,6.013,1.004,14.119-0.704,21.82
				C2096.735,984.146,2093.777,990.459,2088.287,994.923z"/>
			<path style="fill:#F99746;" d="M2197.867,1139.373l5.541-46.006l0.205-1.707c8.931-7.656,44.326-20.778,44.326-20.778
				s-21.264-47.771-34.188-63.632v-0.006c-0.002-0.002-0.006-0.003-0.009-0.005c-3.719-4.556-10.688-8.26-18.758-11.227
				c-6.653-2.468-14.056-4.423-20.966-5.938c-13.81-3.022-25.654-4.294-25.654-4.294l0.003,0.004h-0.003
				c-7.604,7.794-22.625,19.256-39.425,17.066c-12.627-1.653-14.63-8.219-14.409-15.414c-1.781,0.227-3.54,0.552-5.265,0.952
				l0.001-0.003l-40.572-20.325c0,0-26.271,39.659-9.653,71.352c0,0,17.972,8.104,20.119,25.382l-2.776,132.485
				c-1.039,12.942-12.863,42.246-0.347,45.646c55.673,15.115,126.682,6.645,144.174,4.188c2.614-0.362,4.031-0.598,4.031-0.598
				c6.156-1.481,10.344-6.991,10.344-13.116c0-0.787-0.078-1.59-0.22-2.393L2197.867,1139.373z"/>
			<path style="fill:#ED7D2B;" d="M2160.262,1167.451c0.704,31.974,21.655,69.539,39.95,79.663c2.614-0.362,4.031-0.598,4.031-0.598
				c6.156-1.48,10.344-6.991,10.344-13.116c0-0.787-0.079-1.59-0.22-2.393l-16.5-91.634l5.541-46.007
				c-0.268-0.803-0.408-1.228-0.408-1.228S2159.018,1110.969,2160.262,1167.451z"/>
			<path style="fill:#E8945B;" d="M2098.21,977.535c23.187-0.619,40.896-23.454,40.896-23.454l-40.191,1.634
				C2099.609,961.727,2099.918,969.834,2098.21,977.535z"/>
			<path style="fill:#FFB27D;" d="M2096.002,963.529c0,0,51.233,6.243,52.326-29.851c1.093-36.094-20.261-59.475-34.514-59.209
				c-28.423,0.534-33.111,12.02-36.406,23.978C2074.113,910.406,2072.417,960.984,2096.002,963.529z"/>
			<path style="fill:#FFFFFF;" d="M2109.705,942.726c0,0-1.116,4.5-12.337,3.672c0,0-9.421-0.694-9.073-5.651
				C2088.295,940.746,2097.479,937.324,2109.705,942.726z"/>
			<path style="fill:#35488B;" d="M2101.133,874.806c0,0,43.783-0.026,33.723,30.032c-6.342,18.945,14.744,21.891,14.744,21.891
				l10.146-30.364l-6.356-23.657L2101.133,874.806z"/>
		</g>
		<g>
			<path style="fill:#EA9C68;" d="M1656.957,1021.717c0,0,60.942,39.579,80.493,59.669c0,0,75.074,23.524,80.058,25.526
				c4.983,2.003-2.542,18.02-2.542,18.02s-71.521-5.044-93.393-14.746c-21.873-9.702-95.041-39.349-99.692-64.118
				C1617.23,1021.298,1656.957,1021.717,1656.957,1021.717z"/>
			<polygon style="fill:#FFB27D;" points="1585.213,1482.833 1571.557,1555.539 1546.769,1555.539 1540.361,1466.814 			"/>
			<polygon style="fill:#FFB27D;" points="1696.896,1476.297 1712.393,1556.417 1690.668,1557.318 1649.359,1479.213 			"/>
			<path style="fill:#B2443B;" d="M1572.076,1552.772c0,0,5.891,10.669,17.008,13.091c7.002,1.525,12.998,5.17,16.729,10.279
				c3.153,4.319,0.104,10.394-5.244,10.394h-56.429c-4.806,0-8.555-4.146-8.074-8.928c0.42-4.18,0.859-9.048,1.051-12.781
				c0.417-8.149,9.201-15.52,9.201-15.52s7.772,4.401,10.763,4.907C1563.588,1555.315,1572.076,1552.772,1572.076,1552.772z"/>
			<path style="fill:#B2443B;" d="M1711.822,1552.776c0,0,5.829,10.702,16.933,13.188c6.993,1.565,12.969,5.243,16.671,10.375
				c3.129,4.336,0.044,10.393-5.304,10.362l-56.428-0.321c-4.805-0.028-8.532-4.194-8.023-8.974
				c0.444-4.178,0.912-9.044,1.124-12.775c0.463-8.146,9.29-15.467,9.29-15.467s7.747,4.445,10.733,4.968
				C1703.319,1555.271,1711.822,1552.776,1711.822,1552.776z"/>
			<path style="fill:#C65447;" d="M1709.751,1479.626c0,0-23.476,7.327-49.377,9.671c-24.388,2.223-50.926,0.012-62.11-16.88
				c-3.244-4.889-5.07-13.383-5.839-24.363c-4.674-67.192,30.827-227.624,30.827-227.624h41.423
				C1664.675,1223.733,1709.751,1479.626,1709.751,1479.626z"/>
			<path style="fill:#B2443B;" d="M1660.374,1489.297c-24.388,2.223-50.926,0.012-62.11-16.88
				c-3.244-4.889-5.07-13.383-5.839-24.363c0.036-0.12,0.06-0.24,0.097-0.361c6.606-24.628,24.628-177.201,24.628-177.201
				S1679.092,1433.686,1660.374,1489.297z"/>
			<path style="fill:#C65447;" d="M1532.552,1229.744c0,0-18.62,124.942-27.03,258.295c0,0,58.461,24.027,112.727,4.806
				l9.914-254.284L1532.552,1229.744z"/>
			<path style="fill:#B2443B;" d="M1560.431,867.482c0,0-3.765-16.602-19.465-17.409c0,0,5.006,2.992,5.808,6.152
				c0,0-9.112-7.647-23.233-2.535c-14.12,5.111-35.075,19.485-24.521,52.922s-10.989,41.724-19.648,63.293
				c-8.659,21.57,20.813,25.714,14.703,42.555c-6.108,16.841,12.07,56.612,58.313,39.226
				c46.244-17.388,56.747-84.087,37.102-100.381C1569.844,935.011,1560.431,867.482,1560.431,867.482z"/>
			<path style="fill:#F99F46;" d="M1574.519,866.585c0,0-20.75-2.773-33.629,10.68c-6.954,7.264,0.224,17.704,0.224,17.704
				L1574.519,866.585z"/>
			<path style="fill:#B2443B;" d="M1637.45,898.756c-0.397-0.657-16.896-26.749-47.739-31.953
				c-24.986-4.217-48.373,13.436-52.217,38.483c-3.861,25.168,0.076,57.781,41.14,69.53L1637.45,898.756z"/>
			<g>
				<path style="fill:#FFB27D;" d="M1629.895,1010.908l-46.467,27.603l-11.745-32.709c0,0,5.386-11.921,6.951-30.986
					c0.653-8.018,0.639-17.299-0.751-27.491l40.408,17.548c0,0-0.702,3.679-0.988,9.058c-0.299,5.813-0.101,13.611,2.009,20.897
					C1621.13,1001.081,1624.354,1006.959,1629.895,1010.908z"/>
				<path style="fill:#EA9C68;" d="M1619.312,994.827c-22.29,0.82-40.678-20.012-40.678-20.012l38.669-0.886
					C1617.004,979.742,1617.202,987.541,1619.312,994.827z"/>
				<path style="fill:#FFB27D;" d="M1629.317,981.742c0,0-43.643,14.543-61.199-19.779c-18.948-37.042-2.585-65.947,12.369-68.779
					c29.821-5.644,48.009,4.705,54.062,16.485C1640.603,921.447,1653.411,973.937,1629.317,981.742z"/>
				<path style="fill:#FFFFFF;" d="M1610.457,962.99c0,0,2.148,4.461,13.693,1.146c0,0,9.695-2.781,8.25-7.887
					C1632.4,956.249,1622.057,954.678,1610.457,962.99z"/>
			</g>
			<path style="fill:#35488B;" d="M1688.621,1043.142l-37.039-30.099l0.004,0.023c-4.377-3.762-9.963-6.464-17.051-7.363
				c-2.612-0.331-8.102-1.347-11.162-1.717c0.519,6.9,0.514,12.471-11.541,14.594c-16.052,2.822-32.085-6.645-39.722-13.803
				c-12.563,2.373-18.534,3.689-28.534,7.647c-5.762,2.283-10.349,6.431-13.21,11.565c-2.603,4.666-3.779,10.13-3.131,15.713
				l12.333,106.282c0,0-14.745,90.5-12.214,90.739c16.899,1.615,90.819,16.451,143.661-0.438
				c8.533-2.734-11.961-50.646-7.848-148.66C1692.479,1070.057,1688.621,1043.142,1688.621,1043.142z"/>
			<path style="fill:#B2443B;" d="M1598.74,897.259c0,0,0.575,34.273-19.171,45.56c0,0,7.801-16.146,5.166-26.01
				c0,0-5.101,30.567-20.699,35.9c-15.601,5.332-23.484-56.764,8.787-69.25c32.271-12.486,64.095,2.343,67.898,24.171
				c3.806,21.827,0.907,26.378,0.907,26.378S1626.524,892.482,1598.74,897.259z"/>
			<path style="fill:#2C3A64;" d="M1527.354,1236.724c-2.531-0.239,12.214-90.739,12.214-90.739l-12.333-106.282
				c-0.648-5.583,0.528-11.047,3.131-15.713c0.858,0.14,1.695,0.538,2.513,1.227c25.862,21.824,49.632,110.28,49.632,110.28
				S1594.993,1207.063,1527.354,1236.724z"/>
			<path style="fill:#FFB27D;" d="M1523.513,1051.656c0,0-22.023,83.119-17.991,98.406c4.033,15.287,46.905,50.676,54.051,52.994
				l5.151-13.611c0,0-32.619-44.99-29.848-49.852c5.97-10.469,29.848-71.786,29.848-71.786L1523.513,1051.656z"/>
			<path style="fill:#35488B;" d="M1558.462,1083.915c0,0-25.301,4.42-49.986-21.091c0,0,20.969-61.354,47.108-48.93
				C1581.723,1026.319,1575.438,1069.12,1558.462,1083.915z"/>
			<path style="fill:#FFB27D;" d="M1564.724,1189.445c0,0,21.603,4.236,22.516,11.216c0.731,5.581-9.092,14.724-14.373,12.796
				c-5.281-1.929-13.294-10.4-13.294-10.4L1564.724,1189.445z"/>
		</g>
		<path style="fill:#82B378;" d="M2411.958,1586.553h-122.1c-6.542-5.55,4.528-18.153,16.095-19.001
			c5.025-0.38,11.378,0.672,18.637,2.205c1.68-22.316,11.275-122.64,47.438-118.608c40.661,4.514,0,44.181-11.494,67.666
			c-8.516,17.395-17.497,42.34-21.602,54.112c3.302,0.715,6.719,1.416,10.21,2.059c5.389-16.548,25.442-72.207,50.942-68.966
			c29.941,3.798,17.906,26.114-3.315,39.361c-15.568,9.742-34.687,23.588-43.771,30.276c7.696,1.256,15.729,2.104,23.879,1.913
			C2397.791,1577.074,2408,1583.237,2411.958,1586.553z"/>
		<path style="fill:#82B378;" d="M511.075,1580.395c-6.717-10.55-26.928-37.932-53.849-34.308
			c-29.33,3.948,32.395,23.287,51.293,34.388c-4.196,0.059-7.806-0.278-10.455-1.222c-12.634-4.504-34.271,4.133-41.188,7.163
			h120.275c-0.831-2.878-2.998-7.576-8.6-11c-1.975-1.206-5.945-1.375-11.069-0.985c7.151-8.43,12.117-35.361-7.791-28.432
			c-14.544,5.063-14.505,21.518-13.077,31.254c-3.094,0.485-6.231,0.976-9.332,1.42c-5.988-30.518-27.168-119.962-70.098-122.347
			c-43.52-2.418,36.905,92.761,63.684,123.201C517.438,1579.94,514.134,1580.252,511.075,1580.395z"/>
		<g>
			<g>
				<path style="fill:#2C3A64;" d="M735.044,858.738c0,0-40.545,5.375-51.18,32.931c-10.635,27.556-22.892,218.38,0,243.632
					c0,0,1.474-23.816,3.479-28.803c0,0,4.497,48.54,27.429,58.418c22.933,9.879,110.516-144.852,110.516-144.852
					S846.712,850.098,735.044,858.738z"/>
				<path style="fill:#ED985F;" d="M811.423,1447.081c-6.032,52.464-10.289,98.027-8.634,110.61l-24.208-2.941l-0.318-0.04
					c0,0-0.061-0.24-0.17-0.688c0-0.01,0-0.01,0-0.01c-1.505-5.941-12.273-48.894-19.781-89.073
					c-4.925-26.342-8.454-51.486-7.059-64.229c3.699-33.68-30.409-172.455,1.057-184.659c31.466-12.193,84.857,31.944,84.857,31.944
					S821.713,1357.569,811.423,1447.081z"/>
				<path style="fill:#FFB27D;" d="M763.636,1450.302c-8.974,51.416-15.743,95.744-14.875,108.187l-24.258-5.604
					c0,0-11.127-58.535-16.242-106.003v-0.06c-2.322-21.616-3.39-40.928-1.595-51.366c5.764-33.381-19.731-174.001,12.423-184.24
					c32.154-10.229,82.733,37.109,82.733,37.109S779.339,1360.191,763.636,1450.302z"/>
				<path style="fill:#EA9C68;" d="M813.248,1009.185c0,0,36.872,62.171,44.31,112.859c0,0-17.935,24.197-25.229,7.207
					C825.034,1112.26,772.68,1021.299,813.248,1009.185z"/>
				<path style="fill:#2C3A64;" d="M806.227,898.827c-0.397-0.658-16.896-26.749-47.738-31.953
					c-24.987-4.217-48.374,13.435-52.218,38.482c-3.861,25.169,0.076,57.783,41.14,69.531L806.227,898.827z"/>
				<g>
					<path style="fill:#FFB27D;" d="M798.673,1010.979l-46.469,27.603l-11.745-32.709c0,0,5.387-11.92,6.951-30.985
						c0.654-8.018,0.64-17.3-0.75-27.492l40.407,17.549c0,0-0.702,3.678-0.987,9.058c-0.299,5.813-0.102,13.611,2.009,20.897
						C789.906,1001.152,793.131,1007.029,798.673,1010.979z"/>
					<path style="fill:#EA9C68;" d="M788.089,994.898c-22.29,0.821-40.679-20.011-40.679-20.011l38.67-0.886
						C785.781,979.813,785.978,987.612,788.089,994.898z"/>
					<path style="fill:#FFB27D;" d="M798.095,981.813c0,0-43.643,14.544-61.2-19.779c-18.948-37.041-2.585-65.947,12.37-68.778
						c29.821-5.646,48.009,4.706,54.062,16.484C809.38,921.519,822.188,974.008,798.095,981.813z"/>
					<path style="fill:#FFFFFF;" d="M779.234,963.06c0,0,2.148,4.461,13.693,1.146c0,0,9.694-2.781,8.25-7.886
						C801.178,956.32,790.835,954.749,779.234,963.06z"/>
				</g>
				<path style="fill:#C65447;" d="M687.461,1365.074c12.614,12.05,105.769,36.965,158.269,19.053
					c5.322-1.814,2.814-95.551-1.994-186.755c-3.689-69.974-8.731-138.459-12.627-162.795
					c-2.463-15.365-14.668-27.331-30.094-29.422c-2.606-0.36-5.431-0.696-8.481-0.997c0.648,6.896-1.706,13.371-13.72,15.727
					c-15.989,3.123-30.435-7.335-38.207-14.351c-12.518,2.606-20.468,3.945-30.403,8.091c-10.896,4.565-17.396,15.883-15.81,27.595
					l3.004,22.13l16.877,68.822c1.214,8.854,6.082,27.55,4.735,36.391c-4.072,26.803-22.801,84.087-27.138,133.752
					C688.818,1337.25,686.824,1364.46,687.461,1365.074z"/>
				<path style="fill:#B2443B;" d="M691.871,1302.314c1.381-1.598,89.718-104.664,92.901-159.494
					c3.195-55.263-44.318-95.641-44.318-95.641c-18.934-1.25-32.918,4.949-43.058,16.17l13.637,69.072
					c2.684,9.518,5.085,23.652,3.738,32.494C710.7,1191.719,696.208,1252.649,691.871,1302.314z"/>
				<path style="fill:#2C3A64;" d="M767.518,897.329c0,0,4.136,40.942-34.705,55.45c-15.443,5.769-23.484-56.764,8.787-69.249
					c32.272-12.486,64.096,2.342,67.898,24.17c3.806,21.827,0.908,26.379,0.908,26.379S795.301,892.553,767.518,897.329z"/>
				<path style="fill:#FFB27D;" d="M743.933,1031.262c0,0,17.814,70.449,18.505,98.474c0,0,39.093,68.273,41.388,73.128
					c2.296,4.856-14.11,11.493-14.11,11.493s-49.042-52.302-58.495-74.282c-9.454-21.98-42.987-93.451-29.567-114.784
					C715.071,1003.957,743.933,1031.262,743.933,1031.262z"/>
				<path style="fill:#EA9C68;" d="M857.558,1122.045c0,0,3.502,47.989-30.652,85.798c0,0-9.323-11.222-8.148-14.706
					c1.177-3.483,14.544-56.972,24.308-64.58C852.829,1120.948,857.558,1122.045,857.558,1122.045z"/>
				<path style="fill:#EA9C68;" d="M818.758,1193.137c0,0-17.561,8.116-11.594,16.766c5.968,8.648,17.897,3.476,19.741-2.06
					C828.75,1202.31,818.758,1193.137,818.758,1193.137z"/>
				<path style="fill:#C65447;" d="M756.793,1068.431c0,0-22.924,21.325-58.269,18.021c0,0-17.418-61.731,10.514-69.31
					C736.971,1009.565,760.053,1046.151,756.793,1068.431z"/>
				<path style="fill:#B2443B;" d="M802.789,1557.691l-24.208-2.941c-0.159-0.24-0.329-0.479-0.488-0.729c0-0.01,0-0.01,0-0.01
					c-1.505-5.941-12.273-48.894-19.781-89.073c0.419-3.59,1.097-6.342,1.994-7.987c0,0,27.458,2.692,51.117-9.87
					C805.391,1499.545,801.134,1545.108,802.789,1557.691z"/>
				<path style="fill:#C65447;" d="M825.287,1020.065l20.208,34.552c0,0-2.603,16.032-17.721,17.627
					C812.657,1073.837,825.287,1020.065,825.287,1020.065z"/>
				<path style="fill:#C65447;" d="M748.761,1558.488l-24.258-5.604c0,0-11.127-58.535-16.242-106.003v-0.06
					c0,0,22.474,15.265,55.365,3.479h0.01C754.662,1501.718,747.893,1546.046,748.761,1558.488z"/>
				<path style="fill:#2C3A64;" d="M802.493,1552.847c0,0,5.828,10.702,16.932,13.188c6.994,1.565,12.97,5.243,16.671,10.375
					c3.129,4.337,0.045,10.393-5.304,10.362l-56.427-0.321c-4.806-0.027-8.532-4.194-8.024-8.973
					c0.444-4.179,0.912-9.044,1.124-12.776c0.465-8.146,9.29-15.467,9.29-15.467s7.747,4.445,10.733,4.969
					C793.989,1555.341,802.493,1552.847,802.493,1552.847z"/>
				<path style="fill:#2C3A64;" d="M749.432,1552.847c0,0,5.83,10.702,16.934,13.188c6.993,1.565,12.969,5.243,16.671,10.375
					c3.129,4.337,0.044,10.393-5.303,10.362l-56.429-0.321c-4.806-0.027-8.531-4.194-8.023-8.973
					c0.444-4.179,0.911-9.044,1.124-12.776c0.463-8.146,9.29-15.467,9.29-15.467s7.746,4.445,10.733,4.969
					C740.93,1555.341,749.432,1552.847,749.432,1552.847z"/>
				<path style="fill:#FFB27D;" d="M803.825,1202.863c0,0,21.861-0.158,23.08,4.979c1.221,5.14-5.619,21.224-21.607,15.62
					s-15.584-9.106-15.584-9.106L803.825,1202.863z"/>
			</g>
			<g>
				<g>
					<path style="fill:#F99746;" d="M717.036,902.99c-1.333-5.507-0.187-7.024,1.578-7.452c1.765-0.427,3.479,0.399,4.812,5.906
						c1.331,5.507-0.782,10.743-0.782,10.743S718.368,908.497,717.036,902.99z"/>
					<path style="fill:#F99746;" d="M729.728,903.407c4.515-3.424,6.365-2.98,7.462-1.533c1.097,1.446,1.025,3.348-3.489,6.771
						c-4.513,3.424-10.159,3.579-10.159,3.579S725.215,906.831,729.728,903.407z"/>
					<path style="fill:#F99746;" d="M712.505,907.575c-5.58-0.981-7.021,0.26-7.336,2.048c-0.315,1.787,0.617,3.445,6.197,4.427
						c5.58,0.982,10.673-1.461,10.673-1.461S718.085,908.557,712.505,907.575z"/>
					<path style="fill:#F99746;" d="M714.658,920.198c-2.731,4.964-2.023,6.729-0.432,7.604c1.591,0.875,3.461,0.528,6.191-4.435
						c2.731-4.964,2.065-10.572,2.065-10.572S717.39,915.234,714.658,920.198z"/>
					<path style="fill:#F99746;" d="M733.348,915.676c4.699,3.166,4.876,5.061,3.861,6.566c-1.014,1.505-2.837,2.052-7.535-1.115
						c-4.697-3.166-6.67-8.458-6.67-8.458S728.649,912.51,733.348,915.676z"/>
				</g>
				<path style="fill:#FFB93E;" d="M720.161,912.108c0-1.322,1.071-2.394,2.394-2.394c1.323,0,2.394,1.072,2.394,2.394
					c0,1.323-1.071,2.395-2.394,2.395C721.232,914.503,720.161,913.432,720.161,912.108z"/>
			</g>
		</g>
		<g>
			<path style="fill:#2C3A64;" d="M1832.178,989.141c-22.243,8.987-27.782-6.457-34.376-10.779
				c-12.83-8.41-13.177-17.383-9.323-26.613c6.325-15.154-13.767-21.774-8.159-42.197c5.605-20.424,12.013-16.82,14.407-33.84
				c1.914-13.605,20.251-19.611,30.191-20.08c12.732-0.601,26.96-12.356,41.912-9.152c14.953,3.204,17.756,8.81,24.563,10.011
				c6.808,1.201,20.889-0.683,42.048,20.423c20.676,20.624,12.566,28.743,14.969,39.15c2.402,10.406,3.805,34.934-5.405,40.14
				c-9.212,5.206-14.108,24.349-23.728,24.83c-18.021,0.9-20.123,11.956-31.235,13.889c-8.624,1.5-12.415-3.477-26.186,3.53
				C1854.5,1002.195,1842.09,985.136,1832.178,989.141z"/>
			<path style="fill:#A05A2B;" d="M1775.973,1247.994c0,0,38.865,275.66,34.381,309.695l24.527-2.978
				c0,0,30.696-120.333,27.004-154.005c-3.69-33.672,30.413-172.454-1.052-184.653S1775.973,1247.994,1775.973,1247.994z"/>
			<path style="fill:#BC6E39;" d="M1811.319,1248.326c0,0,55.44,275.917,53.061,310.164l24.263-5.606
				c0,0,23.588-124.044,17.83-157.425c-5.758-33.382,19.736-173.999-12.42-184.238
				C1861.896,1200.982,1811.319,1248.326,1811.319,1248.326z"/>
			<path style="fill:#2C3A64;" d="M1810.649,1552.847c0,0-5.829,10.702-16.933,13.188c-6.994,1.565-12.97,5.243-16.671,10.375
				c-3.129,4.337-0.044,10.393,5.303,10.362l56.428-0.321c4.806-0.027,8.532-4.194,8.024-8.973
				c-0.444-4.179-0.912-9.044-1.124-12.776c-0.464-8.146-9.29-15.467-9.29-15.467s-7.747,4.445-10.733,4.969
				C1819.152,1555.341,1810.649,1552.847,1810.649,1552.847z"/>
			<path style="fill:#35488B;" d="M1863.709,1552.847c0,0-5.829,10.702-16.932,13.188c-6.994,1.565-12.969,5.243-16.672,10.375
				c-3.129,4.337-0.043,10.393,5.304,10.362l56.429-0.321c4.805-0.027,8.531-4.194,8.022-8.973
				c-0.444-4.179-0.911-9.044-1.124-12.776c-0.463-8.146-9.289-15.467-9.289-15.467s-7.748,4.445-10.734,4.969
				C1872.213,1555.341,1863.709,1552.847,1863.709,1552.847z"/>
			<path style="fill:#BC6E39;" d="M1799.895,1009.185c0,0-36.872,62.171-44.311,112.859c0,0,17.935,24.197,25.229,7.207
				C1788.107,1112.26,1840.462,1021.299,1799.895,1009.185z"/>
			<path style="fill:#BC6E39;" d="M1814.47,1010.979l46.468,27.603l11.744-32.709c0,0-5.385-11.92-6.95-30.985
				c-0.654-8.018-0.64-17.3,0.75-27.492l-40.407,17.549c0,0,0.702,3.678,0.987,9.058c0.3,5.813,0.102,13.611-2.009,20.897
				C1823.235,1001.152,1820.011,1007.029,1814.47,1010.979z"/>
			<path style="fill:#A05A2B;" d="M1825.053,994.898c22.29,0.821,40.679-20.011,40.679-20.011l-38.67-0.886
				C1827.361,979.813,1827.163,987.612,1825.053,994.898z"/>
			<path style="fill:#BC6E39;" d="M1815.048,981.813c0,0,43.643,14.544,61.199-19.779c18.947-37.041,2.585-65.947-12.37-68.778
				c-29.82-5.646-48.01,4.706-54.063,16.484C1803.763,921.519,1790.953,974.008,1815.048,981.813z"/>
			<path style="fill:#FFFFFF;" d="M1833.907,963.06c0,0-2.148,4.461-13.694,1.146c0,0-9.693-2.781-8.248-7.886
				C1811.965,956.32,1822.308,954.749,1833.907,963.06z"/>
			<path style="fill:#FFB93E;" d="M1925.68,1365.074c-12.613,12.05-105.768,36.965-158.268,19.053
				c-9.406-3.207,5.646-293.494,14.621-349.55c2.462-15.365,14.668-27.331,30.094-29.422c2.607-0.36,5.784-0.746,8.835-1.047
				c-0.648,6.896,1.353,13.421,13.366,15.776c15.99,3.123,30.581-6.996,38.354-14.013c12.52,2.607,20.321,3.607,30.257,7.753
				c10.897,4.565,17.396,15.883,15.81,27.595l-3.003,22.13l-9.563,70.521c-1.214,8.854-1.142,17.841,0.204,26.682
				c4.072,26.803,10.548,92.098,14.885,141.763C1924.322,1337.25,1926.317,1364.46,1925.68,1365.074z"/>
			<path style="fill:#FFA412;" d="M1921.271,1302.314c-1.382-1.598-89.719-104.664-92.902-159.494
				c-3.195-55.263,44.318-95.641,44.318-95.641c18.935-1.25,32.918,4.949,43.058,16.17l-9.563,70.521
				c-1.214,8.854-1.142,17.841,0.204,26.682C1910.459,1187.354,1916.935,1252.649,1921.271,1302.314z"/>
			<path style="fill:#2C3A64;" d="M1845.625,897.329c0,0-4.137,40.942,34.704,55.45c15.444,5.769,23.484-56.764-8.787-69.249
				c-32.271-12.486-64.095,2.342-67.899,24.17c-3.805,21.827-0.906,26.379-0.906,26.379S1817.841,892.553,1845.625,897.329z"/>
			<path style="fill:#BC6E39;" d="M1869.209,1031.262c0,0-17.813,70.449-18.505,98.474c0,0-39.092,68.273-41.388,73.128
				c-2.296,4.856,14.11,11.493,14.11,11.493s49.042-52.302,58.495-74.282c9.455-21.98,42.988-93.451,29.568-114.784
				C1898.071,1003.957,1869.209,1031.262,1869.209,1031.262z"/>
			<path style="fill:#BC6E39;" d="M1755.584,1122.045c0,0-3.502,47.989,30.652,85.798c0,0,9.323-11.222,8.147-14.706
				c-1.177-3.483-14.544-56.972-24.308-64.58S1755.584,1122.045,1755.584,1122.045z"/>
			<path style="fill:#BC6E39;" d="M1809.316,1202.863c0,0-21.861-0.158-23.08,4.979c-1.22,5.14,5.619,21.224,21.606,15.62
				s15.584-9.106,15.584-9.106L1809.316,1202.863z"/>
			<path style="fill:#BC6E39;" d="M1794.384,1193.137c0,0,17.562,8.116,11.594,16.766c-5.967,8.648-17.897,3.476-19.741-2.06
				C1784.392,1202.31,1794.384,1193.137,1794.384,1193.137z"/>
			<path style="fill:#FFB93E;" d="M1856.349,1068.431c0,0,22.923,21.325,58.269,18.021c0,0,17.418-61.731-10.514-69.31
				C1876.172,1009.565,1853.09,1046.151,1856.349,1068.431z"/>
			<path style="fill:#FFB93E;" d="M1787.854,1020.065l-20.206,34.552c0,0,2.602,16.032,17.72,17.627
				C1800.485,1073.837,1787.854,1020.065,1787.854,1020.065z"/>
		</g>
		<path style="fill:#2E3552;" d="M2737.436,1593.419H154.733c-1.613,0-2.933-1.319-2.933-2.933v-1c0-1.613,1.32-2.934,2.933-2.934
			h2582.702c1.613,0,2.934,1.32,2.934,2.934v1C2740.369,1592.1,2739.049,1593.419,2737.436,1593.419z"/>
	</g>
</g>
</svg>
